<svg width="90" height="133" viewBox="0 0 90 133" fill="none" xmlns="http://www.w3.org/2000/svg">
<path d="M1.67522 39.6842H31.0672C31.5952 32.6442 35.1152 25.6042 44.7952 25.6042C52.8912 25.6042 57.9952 30.3562 57.9952 38.9802C57.9952 50.5962 48.1392 53.0602 37.9312 53.0602H32.2992V77.5242H37.9312C53.5952 77.5242 60.4592 82.1002 60.4592 93.5402C60.4592 101.988 55.3552 107.972 46.0272 107.972C34.9392 107.972 29.4832 101.284 29.3072 91.2522H0.0912193C0.971219 120.292 20.3312 132.964 47.0832 132.964C74.0112 132.964 89.4992 117.476 89.4992 95.8282C89.4992 78.9322 80.6992 69.0762 67.8512 64.8522V64.1482C76.6512 61.1562 87.2112 52.1802 87.2112 35.2842C87.2112 15.9242 72.6032 0.436196 45.4992 0.436196C19.2752 0.436196 2.73122 14.3402 1.67522 39.6842Z" fill="#5A5A5A" fill-opacity="0.1"/>
</svg>
