<svg width="114" height="116" viewBox="0 0 114 116" fill="none" xmlns="http://www.w3.org/2000/svg">
<path d="M56.64 115.868C48.2133 115.868 40.5333 114.268 33.6 111.068C26.7733 107.762 20.8533 103.388 15.84 97.9482C10.8267 92.4015 6.98667 86.2149 4.32 79.3882C1.65333 72.4549 0.32 65.3082 0.32 57.9482C0.32 50.4815 1.70667 43.3349 4.48 36.5082C7.36 29.5749 11.3067 23.4415 16.32 18.1082C21.44 12.6682 27.4667 8.40153 34.4 5.30819C41.3333 2.21486 48.9067 0.668196 57.12 0.668196C65.5467 0.668196 73.1733 2.32153 80 5.6282C86.9333 8.8282 92.8533 13.2015 97.76 18.7482C102.773 24.2949 106.613 30.5349 109.28 37.4682C111.947 44.2949 113.28 51.2815 113.28 58.4282C113.28 65.8949 111.84 73.0949 108.96 80.0282C106.187 86.8549 102.24 92.9882 97.12 98.4282C92.1067 103.762 86.1333 108.028 79.2 111.228C72.3733 114.322 64.8533 115.868 56.64 115.868ZM27.04 58.2682C27.04 64.1349 28.16 69.6815 30.4 74.9082C32.64 80.0282 36 84.2415 40.48 87.5482C44.96 90.8549 50.4 92.5082 56.8 92.5082C63.4133 92.5082 68.9067 90.8015 73.28 87.3882C77.76 83.9749 81.0667 79.6549 83.2 74.4282C85.44 69.0949 86.56 63.6015 86.56 57.9482C86.56 52.0815 85.3867 46.5882 83.04 41.4682C80.8 36.2415 77.44 32.0282 72.96 28.8282C68.5867 25.6282 63.2 24.0282 56.8 24.0282C50.1867 24.0282 44.64 25.7349 40.16 29.1482C35.7867 32.4549 32.48 36.7215 30.24 41.9482C28.1067 47.1749 27.04 52.6149 27.04 58.2682Z" fill="#FF9619"/>
</svg>
